<?xml version="1.0" encoding="utf-8" standalone="no"?>
<!DOCTYPE svg PUBLIC "-//W3C//DTD SVG 1.1//EN"
  "http://www.w3.org/Graphics/SVG/1.1/DTD/svg11.dtd">
<svg xmlns:xlink="http://www.w3.org/1999/xlink" width="633.6pt" height="345.6pt" viewBox="0 0 633.6 345.6" xmlns="http://www.w3.org/2000/svg" version="1.1">
 <metadata>
  <rdf:RDF xmlns:dc="http://purl.org/dc/elements/1.1/" xmlns:cc="http://creativecommons.org/ns#" xmlns:rdf="http://www.w3.org/1999/02/22-rdf-syntax-ns#">
   <cc:Work>
    <dc:type rdf:resource="http://purl.org/dc/dcmitype/StillImage"/>
    <dc:format>image/svg+xml</dc:format>
    <dc:creator>
     <cc:Agent>
      <dc:title>Matplotlib v3.11.1, https://matplotlib.org/</dc:title>
     </cc:Agent>
    </dc:creator>
   </cc:Work>
  </rdf:RDF>
 </metadata>
 <defs>
  <style type="text/css">*{stroke-linejoin: round; stroke-linecap: butt}</style>
 </defs>
 <g id="figure_1">
  <g id="patch_1">
   <path d="M 0 345.6
L 633.6 345.6
L 633.6 0
L 0 0
z
" style="fill: #ffffff"/>
  </g>
  <g id="axes_1">
   <g id="patch_2">
    <path d="M 129.923125 306.877891
L 623.88 306.877891
L 623.88 24
L 129.923125 24
z
" style="fill: #ffffff"/>
   </g>
   <g id="matplotlib.axis_1">
    <g id="xtick_1">
     <g id="line2d_1">
      <path d="M 188.856987 306.877891
L 188.856987 24
" clip-path="url(#pdc5f30e6a3)" style="fill: none; stroke: #e7e5e4; stroke-width: 0.7; stroke-linecap: square"/>
     </g>
     <g id="line2d_2">
      <defs>
       <path id="mc1a5985deb" d="M 0 0
L 0 3.5
" style="stroke: #000000; stroke-width: 0.8"/>
      </defs>
      <g>
       <use xlink:href="#mc1a5985deb" x="188.856987" y="306.877891" style="stroke: #000000; stroke-width: 0.8"/>
      </g>
     </g>
     <g id="text_1">
      <!-- −0.005 -->
      <g transform="translate(172.203472 320.715781) scale(0.09 -0.09)">
       <defs>
        <path id="DejaVuSans-c9c" d="M 678 2272
L 4684 2272
L 4684 1741
L 678 1741
L 678 2272
z
" transform="scale(0.015625)"/>
        <path id="DejaVuSans-13" d="M 2034 4250
Q 1547 4250 1301 3770
Q 1056 3291 1056 2328
Q 1056 1369 1301 889
Q 1547 409 2034 409
Q 2525 409 2770 889
Q 3016 1369 3016 2328
Q 3016 3291 2770 3770
Q 2525 4250 2034 4250
z
M 2034 4750
Q 2819 4750 3233 4129
Q 3647 3509 3647 2328
Q 3647 1150 3233 529
Q 2819 -91 2034 -91
Q 1250 -91 836 529
Q 422 1150 422 2328
Q 422 3509 836 4129
Q 1250 4750 2034 4750
z
" transform="scale(0.015625)"/>
        <path id="DejaVuSans-11" d="M 684 794
L 1344 794
L 1344 0
L 684 0
L 684 794
z
" transform="scale(0.015625)"/>
        <path id="DejaVuSans-18" d="M 691 4666
L 3169 4666
L 3169 4134
L 1269 4134
L 1269 2991
Q 1406 3038 1543 3061
Q 1681 3084 1819 3084
Q 2600 3084 3056 2656
Q 3513 2228 3513 1497
Q 3513 744 3044 326
Q 2575 -91 1722 -91
Q 1428 -91 1123 -41
Q 819 9 494 109
L 494 744
Q 775 591 1075 516
Q 1375 441 1709 441
Q 2250 441 2565 725
Q 2881 1009 2881 1497
Q 2881 1984 2565 2268
Q 2250 2553 1709 2553
Q 1456 2553 1204 2497
Q 953 2441 691 2322
L 691 4666
z
" transform="scale(0.015625)"/>
       </defs>
       <use xlink:href="#DejaVuSans-c9c"/>
       <use xlink:href="#DejaVuSans-13" transform="translate(83.796875 0)"/>
       <use xlink:href="#DejaVuSans-11" transform="translate(147.421875 0)"/>
       <use xlink:href="#DejaVuSans-13" transform="translate(179.203125 0)"/>
       <use xlink:href="#DejaVuSans-13" transform="translate(242.828125 0)"/>
       <use xlink:href="#DejaVuSans-18" transform="translate(306.453125 0)"/>
      </g>
     </g>
    </g>
    <g id="xtick_2">
     <g id="line2d_3">
      <path d="M 267.650481 306.877891
L 267.650481 24
" clip-path="url(#pdc5f30e6a3)" style="fill: none; stroke: #e7e5e4; stroke-width: 0.7; stroke-linecap: square"/>
     </g>
     <g id="line2d_4">
      <g>
       <use xlink:href="#mc1a5985deb" x="267.650481" y="306.877891" style="stroke: #000000; stroke-width: 0.8"/>
      </g>
     </g>
     <g id="text_2">
      <!-- 0.000 -->
      <g transform="translate(254.767825 320.715781) scale(0.09 -0.09)">
       <use xlink:href="#DejaVuSans-13"/>
       <use xlink:href="#DejaVuSans-11" transform="translate(63.625 0)"/>
       <use xlink:href="#DejaVuSans-13" transform="translate(95.40625 0)"/>
       <use xlink:href="#DejaVuSans-13" transform="translate(159.03125 0)"/>
       <use xlink:href="#DejaVuSans-13" transform="translate(222.65625 0)"/>
      </g>
     </g>
    </g>
    <g id="xtick_3">
     <g id="line2d_5">
      <path d="M 346.443975 306.877891
L 346.443975 24
" clip-path="url(#pdc5f30e6a3)" style="fill: none; stroke: #e7e5e4; stroke-width: 0.7; stroke-linecap: square"/>
     </g>
     <g id="line2d_6">
      <g>
       <use xlink:href="#mc1a5985deb" x="346.443975" y="306.877891" style="stroke: #000000; stroke-width: 0.8"/>
      </g>
     </g>
     <g id="text_3">
      <!-- 0.005 -->
      <g transform="translate(333.561318 320.715781) scale(0.09 -0.09)">
       <use xlink:href="#DejaVuSans-13"/>
       <use xlink:href="#DejaVuSans-11" transform="translate(63.625 0)"/>
       <use xlink:href="#DejaVuSans-13" transform="translate(95.40625 0)"/>
       <use xlink:href="#DejaVuSans-13" transform="translate(159.03125 0)"/>
       <use xlink:href="#DejaVuSans-18" transform="translate(222.65625 0)"/>
      </g>
     </g>
    </g>
    <g id="xtick_4">
     <g id="line2d_7">
      <path d="M 425.237468 306.877891
L 425.237468 24
" clip-path="url(#pdc5f30e6a3)" style="fill: none; stroke: #e7e5e4; stroke-width: 0.7; stroke-linecap: square"/>
     </g>
     <g id="line2d_8">
      <g>
       <use xlink:href="#mc1a5985deb" x="425.237468" y="306.877891" style="stroke: #000000; stroke-width: 0.8"/>
      </g>
     </g>
     <g id="text_4">
      <!-- 0.010 -->
      <g transform="translate(412.354812 320.715781) scale(0.09 -0.09)">
       <defs>
        <path id="DejaVuSans-14" d="M 794 531
L 1825 531
L 1825 4091
L 703 3866
L 703 4441
L 1819 4666
L 2450 4666
L 2450 531
L 3481 531
L 3481 0
L 794 0
L 794 531
z
" transform="scale(0.015625)"/>
       </defs>
       <use xlink:href="#DejaVuSans-13"/>
       <use xlink:href="#DejaVuSans-11" transform="translate(63.625 0)"/>
       <use xlink:href="#DejaVuSans-13" transform="translate(95.40625 0)"/>
       <use xlink:href="#DejaVuSans-14" transform="translate(159.03125 0)"/>
       <use xlink:href="#DejaVuSans-13" transform="translate(222.65625 0)"/>
      </g>
     </g>
    </g>
    <g id="xtick_5">
     <g id="line2d_9">
      <path d="M 504.030962 306.877891
L 504.030962 24
" clip-path="url(#pdc5f30e6a3)" style="fill: none; stroke: #e7e5e4; stroke-width: 0.7; stroke-linecap: square"/>
     </g>
     <g id="line2d_10">
      <g>
       <use xlink:href="#mc1a5985deb" x="504.030962" y="306.877891" style="stroke: #000000; stroke-width: 0.8"/>
      </g>
     </g>
     <g id="text_5">
      <!-- 0.015 -->
      <g transform="translate(491.148306 320.715781) scale(0.09 -0.09)">
       <use xlink:href="#DejaVuSans-13"/>
       <use xlink:href="#DejaVuSans-11" transform="translate(63.625 0)"/>
       <use xlink:href="#DejaVuSans-13" transform="translate(95.40625 0)"/>
       <use xlink:href="#DejaVuSans-14" transform="translate(159.03125 0)"/>
       <use xlink:href="#DejaVuSans-18" transform="translate(222.65625 0)"/>
      </g>
     </g>
    </g>
    <g id="xtick_6">
     <g id="line2d_11">
      <path d="M 582.824456 306.877891
L 582.824456 24
" clip-path="url(#pdc5f30e6a3)" style="fill: none; stroke: #e7e5e4; stroke-width: 0.7; stroke-linecap: square"/>
     </g>
     <g id="line2d_12">
      <g>
       <use xlink:href="#mc1a5985deb" x="582.824456" y="306.877891" style="stroke: #000000; stroke-width: 0.8"/>
      </g>
     </g>
     <g id="text_6">
      <!-- 0.020 -->
      <g transform="translate(569.941799 320.715781) scale(0.09 -0.09)">
       <defs>
        <path id="DejaVuSans-15" d="M 1228 531
L 3431 531
L 3431 0
L 469 0
L 469 531
Q 828 903 1448 1529
Q 2069 2156 2228 2338
Q 2531 2678 2651 2914
Q 2772 3150 2772 3378
Q 2772 3750 2511 3984
Q 2250 4219 1831 4219
Q 1534 4219 1204 4116
Q 875 4013 500 3803
L 500 4441
Q 881 4594 1212 4672
Q 1544 4750 1819 4750
Q 2544 4750 2975 4387
Q 3406 4025 3406 3419
Q 3406 3131 3298 2873
Q 3191 2616 2906 2266
Q 2828 2175 2409 1742
Q 1991 1309 1228 531
z
" transform="scale(0.015625)"/>
       </defs>
       <use xlink:href="#DejaVuSans-13"/>
       <use xlink:href="#DejaVuSans-11" transform="translate(63.625 0)"/>
       <use xlink:href="#DejaVuSans-13" transform="translate(95.40625 0)"/>
       <use xlink:href="#DejaVuSans-15" transform="translate(159.03125 0)"/>
       <use xlink:href="#DejaVuSans-13" transform="translate(222.65625 0)"/>
      </g>
     </g>
    </g>
    <g id="text_7">
     <!-- Rewarded − unrewarded DMS response (fractional dF/F) -->
     <g transform="translate(250.251875 333.716484) scale(0.09 -0.09)">
      <defs>
       <path id="DejaVuSans-35" d="M 2841 2188
Q 3044 2119 3236 1894
Q 3428 1669 3622 1275
L 4263 0
L 3584 0
L 2988 1197
Q 2756 1666 2539 1819
Q 2322 1972 1947 1972
L 1259 1972
L 1259 0
L 628 0
L 628 4666
L 2053 4666
Q 2853 4666 3247 4331
Q 3641 3997 3641 3322
Q 3641 2881 3436 2590
Q 3231 2300 2841 2188
z
M 1259 4147
L 1259 2491
L 2053 2491
Q 2509 2491 2742 2702
Q 2975 2913 2975 3322
Q 2975 3731 2742 3939
Q 2509 4147 2053 4147
L 1259 4147
z
" transform="scale(0.015625)"/>
       <path id="DejaVuSans-48" d="M 3597 1894
L 3597 1613
L 953 1613
Q 991 1019 1311 708
Q 1631 397 2203 397
Q 2534 397 2845 478
Q 3156 559 3463 722
L 3463 178
Q 3153 47 2828 -22
Q 2503 -91 2169 -91
Q 1331 -91 842 396
Q 353 884 353 1716
Q 353 2575 817 3079
Q 1281 3584 2069 3584
Q 2775 3584 3186 3129
Q 3597 2675 3597 1894
z
M 3022 2063
Q 3016 2534 2758 2815
Q 2500 3097 2075 3097
Q 1594 3097 1305 2825
Q 1016 2553 972 2059
L 3022 2063
z
" transform="scale(0.015625)"/>
       <path id="DejaVuSans-5a" d="M 269 3500
L 844 3500
L 1563 769
L 2278 3500
L 2956 3500
L 3675 769
L 4391 3500
L 4966 3500
L 4050 0
L 3372 0
L 2619 2869
L 1863 0
L 1184 0
L 269 3500
z
" transform="scale(0.015625)"/>
       <path id="DejaVuSans-44" d="M 2194 1759
Q 1497 1759 1228 1600
Q 959 1441 959 1056
Q 959 750 1161 570
Q 1363 391 1709 391
Q 2188 391 2477 730
Q 2766 1069 2766 1631
L 2766 1759
L 2194 1759
z
M 3341 1997
L 3341 0
L 2766 0
L 2766 531
Q 2569 213 2275 61
Q 1981 -91 1556 -91
Q 1019 -91 701 211
Q 384 513 384 1019
Q 384 1609 779 1909
Q 1175 2209 1959 2209
L 2766 2209
L 2766 2266
Q 2766 2663 2505 2880
Q 2244 3097 1772 3097
Q 1472 3097 1187 3025
Q 903 2953 641 2809
L 641 3341
Q 956 3463 1253 3523
Q 1550 3584 1831 3584
Q 2591 3584 2966 3190
Q 3341 2797 3341 1997
z
" transform="scale(0.015625)"/>
       <path id="DejaVuSans-55" d="M 2631 2963
Q 2534 3019 2420 3045
Q 2306 3072 2169 3072
Q 1681 3072 1420 2755
Q 1159 2438 1159 1844
L 1159 0
L 581 0
L 581 3500
L 1159 3500
L 1159 2956
Q 1341 3275 1631 3429
Q 1922 3584 2338 3584
Q 2397 3584 2469 3576
Q 2541 3569 2628 3553
L 2631 2963
z
" transform="scale(0.015625)"/>
       <path id="DejaVuSans-47" d="M 2906 2969
L 2906 4863
L 3481 4863
L 3481 0
L 2906 0
L 2906 525
Q 2725 213 2448 61
Q 2172 -91 1784 -91
Q 1150 -91 751 415
Q 353 922 353 1747
Q 353 2572 751 3078
Q 1150 3584 1784 3584
Q 2172 3584 2448 3432
Q 2725 3281 2906 2969
z
M 947 1747
Q 947 1113 1208 752
Q 1469 391 1925 391
Q 2381 391 2643 752
Q 2906 1113 2906 1747
Q 2906 2381 2643 2742
Q 2381 3103 1925 3103
Q 1469 3103 1208 2742
Q 947 2381 947 1747
z
" transform="scale(0.015625)"/>
       <path id="DejaVuSans-3" transform="scale(0.015625)"/>
       <path id="DejaVuSans-58" d="M 544 1381
L 544 3500
L 1119 3500
L 1119 1403
Q 1119 906 1312 657
Q 1506 409 1894 409
Q 2359 409 2629 706
Q 2900 1003 2900 1516
L 2900 3500
L 3475 3500
L 3475 0
L 2900 0
L 2900 538
Q 2691 219 2414 64
Q 2138 -91 1772 -91
Q 1169 -91 856 284
Q 544 659 544 1381
z
M 1991 3584
L 1991 3584
z
" transform="scale(0.015625)"/>
       <path id="DejaVuSans-51" d="M 3513 2113
L 3513 0
L 2938 0
L 2938 2094
Q 2938 2591 2744 2837
Q 2550 3084 2163 3084
Q 1697 3084 1428 2787
Q 1159 2491 1159 1978
L 1159 0
L 581 0
L 581 3500
L 1159 3500
L 1159 2956
Q 1366 3272 1645 3428
Q 1925 3584 2291 3584
Q 2894 3584 3203 3211
Q 3513 2838 3513 2113
z
" transform="scale(0.015625)"/>
       <path id="DejaVuSans-27" d="M 1259 4147
L 1259 519
L 2022 519
Q 2988 519 3436 956
Q 3884 1394 3884 2338
Q 3884 3275 3436 3711
Q 2988 4147 2022 4147
L 1259 4147
z
M 628 4666
L 1925 4666
Q 3281 4666 3915 4102
Q 4550 3538 4550 2338
Q 4550 1131 3912 565
Q 3275 0 1925 0
L 628 0
L 628 4666
z
" transform="scale(0.015625)"/>
       <path id="DejaVuSans-30" d="M 628 4666
L 1569 4666
L 2759 1491
L 3956 4666
L 4897 4666
L 4897 0
L 4281 0
L 4281 4097
L 3078 897
L 2444 897
L 1241 4097
L 1241 0
L 628 0
L 628 4666
z
" transform="scale(0.015625)"/>
       <path id="DejaVuSans-36" d="M 3425 4513
L 3425 3897
Q 3066 4069 2747 4153
Q 2428 4238 2131 4238
Q 1616 4238 1336 4038
Q 1056 3838 1056 3469
Q 1056 3159 1242 3001
Q 1428 2844 1947 2747
L 2328 2669
Q 3034 2534 3370 2195
Q 3706 1856 3706 1288
Q 3706 609 3251 259
Q 2797 -91 1919 -91
Q 1588 -91 1214 -16
Q 841 59 441 206
L 441 856
Q 825 641 1194 531
Q 1563 422 1919 422
Q 2459 422 2753 634
Q 3047 847 3047 1241
Q 3047 1584 2836 1778
Q 2625 1972 2144 2069
L 1759 2144
Q 1053 2284 737 2584
Q 422 2884 422 3419
Q 422 4038 858 4394
Q 1294 4750 2059 4750
Q 2388 4750 2728 4690
Q 3069 4631 3425 4513
z
" transform="scale(0.015625)"/>
       <path id="DejaVuSans-56" d="M 2834 3397
L 2834 2853
Q 2591 2978 2328 3040
Q 2066 3103 1784 3103
Q 1356 3103 1142 2972
Q 928 2841 928 2578
Q 928 2378 1081 2264
Q 1234 2150 1697 2047
L 1894 2003
Q 2506 1872 2764 1633
Q 3022 1394 3022 966
Q 3022 478 2636 193
Q 2250 -91 1575 -91
Q 1294 -91 989 -36
Q 684 19 347 128
L 347 722
Q 666 556 975 473
Q 1284 391 1588 391
Q 1994 391 2212 530
Q 2431 669 2431 922
Q 2431 1156 2273 1281
Q 2116 1406 1581 1522
L 1381 1569
Q 847 1681 609 1914
Q 372 2147 372 2553
Q 372 3047 722 3315
Q 1072 3584 1716 3584
Q 2034 3584 2315 3537
Q 2597 3491 2834 3397
z
" transform="scale(0.015625)"/>
       <path id="DejaVuSans-53" d="M 1159 525
L 1159 -1331
L 581 -1331
L 581 3500
L 1159 3500
L 1159 2969
Q 1341 3281 1617 3432
Q 1894 3584 2278 3584
Q 2916 3584 3314 3078
Q 3713 2572 3713 1747
Q 3713 922 3314 415
Q 2916 -91 2278 -91
Q 1894 -91 1617 61
Q 1341 213 1159 525
z
M 3116 1747
Q 3116 2381 2855 2742
Q 2594 3103 2138 3103
Q 1681 3103 1420 2742
Q 1159 2381 1159 1747
Q 1159 1113 1420 752
Q 1681 391 2138 391
Q 2594 391 2855 752
Q 3116 1113 3116 1747
z
" transform="scale(0.015625)"/>
       <path id="DejaVuSans-52" d="M 1959 3097
Q 1497 3097 1228 2736
Q 959 2375 959 1747
Q 959 1119 1226 758
Q 1494 397 1959 397
Q 2419 397 2687 759
Q 2956 1122 2956 1747
Q 2956 2369 2687 2733
Q 2419 3097 1959 3097
z
M 1959 3584
Q 2709 3584 3137 3096
Q 3566 2609 3566 1747
Q 3566 888 3137 398
Q 2709 -91 1959 -91
Q 1206 -91 779 398
Q 353 888 353 1747
Q 353 2609 779 3096
Q 1206 3584 1959 3584
z
" transform="scale(0.015625)"/>
       <path id="DejaVuSans-b" d="M 1984 4856
Q 1566 4138 1362 3434
Q 1159 2731 1159 2009
Q 1159 1288 1364 580
Q 1569 -128 1984 -844
L 1484 -844
Q 1016 -109 783 600
Q 550 1309 550 2009
Q 550 2706 781 3412
Q 1013 4119 1484 4856
L 1984 4856
z
" transform="scale(0.015625)"/>
       <path id="DejaVuSans-49" d="M 2375 4863
L 2375 4384
L 1825 4384
Q 1516 4384 1395 4259
Q 1275 4134 1275 3809
L 1275 3500
L 2222 3500
L 2222 3053
L 1275 3053
L 1275 0
L 697 0
L 697 3053
L 147 3053
L 147 3500
L 697 3500
L 697 3744
Q 697 4328 969 4595
Q 1241 4863 1831 4863
L 2375 4863
z
" transform="scale(0.015625)"/>
       <path id="DejaVuSans-46" d="M 3122 3366
L 3122 2828
Q 2878 2963 2633 3030
Q 2388 3097 2138 3097
Q 1578 3097 1268 2742
Q 959 2388 959 1747
Q 959 1106 1268 751
Q 1578 397 2138 397
Q 2388 397 2633 464
Q 2878 531 3122 666
L 3122 134
Q 2881 22 2623 -34
Q 2366 -91 2075 -91
Q 1284 -91 818 406
Q 353 903 353 1747
Q 353 2603 823 3093
Q 1294 3584 2113 3584
Q 2378 3584 2631 3529
Q 2884 3475 3122 3366
z
" transform="scale(0.015625)"/>
       <path id="DejaVuSans-57" d="M 1172 4494
L 1172 3500
L 2356 3500
L 2356 3053
L 1172 3053
L 1172 1153
Q 1172 725 1289 603
Q 1406 481 1766 481
L 2356 481
L 2356 0
L 1766 0
Q 1100 0 847 248
Q 594 497 594 1153
L 594 3053
L 172 3053
L 172 3500
L 594 3500
L 594 4494
L 1172 4494
z
" transform="scale(0.015625)"/>
       <path id="DejaVuSans-4c" d="M 603 3500
L 1178 3500
L 1178 0
L 603 0
L 603 3500
z
M 603 4863
L 1178 4863
L 1178 4134
L 603 4134
L 603 4863
z
" transform="scale(0.015625)"/>
       <path id="DejaVuSans-4f" d="M 603 4863
L 1178 4863
L 1178 0
L 603 0
L 603 4863
z
" transform="scale(0.015625)"/>
       <path id="DejaVuSans-29" d="M 628 4666
L 3309 4666
L 3309 4134
L 1259 4134
L 1259 2759
L 3109 2759
L 3109 2228
L 1259 2228
L 1259 0
L 628 0
L 628 4666
z
" transform="scale(0.015625)"/>
       <path id="DejaVuSans-12" d="M 1625 4666
L 2156 4666
L 531 -594
L 0 -594
L 1625 4666
z
" transform="scale(0.015625)"/>
       <path id="DejaVuSans-c" d="M 513 4856
L 1013 4856
Q 1481 4119 1714 3412
Q 1947 2706 1947 2009
Q 1947 1309 1714 600
Q 1481 -109 1013 -844
L 513 -844
Q 928 -128 1133 580
Q 1338 1288 1338 2009
Q 1338 2731 1133 3434
Q 928 4138 513 4856
z
" transform="scale(0.015625)"/>
      </defs>
      <use xlink:href="#DejaVuSans-35"/>
      <use xlink:href="#DejaVuSans-48" transform="translate(65 0)"/>
      <use xlink:href="#DejaVuSans-5a" transform="translate(126.53125 0)"/>
      <use xlink:href="#DejaVuSans-44" transform="translate(208.3125 0)"/>
      <use xlink:href="#DejaVuSans-55" transform="translate(269.59375 0)"/>
      <use xlink:href="#DejaVuSans-47" transform="translate(308.953125 0)"/>
      <use xlink:href="#DejaVuSans-48" transform="translate(372.4375 0)"/>
      <use xlink:href="#DejaVuSans-47" transform="translate(433.96875 0)"/>
      <use xlink:href="#DejaVuSans-3" transform="translate(497.453125 0)"/>
      <use xlink:href="#DejaVuSans-c9c" transform="translate(529.234375 0)"/>
      <use xlink:href="#DejaVuSans-3" transform="translate(613.03125 0)"/>
      <use xlink:href="#DejaVuSans-58" transform="translate(644.8125 0)"/>
      <use xlink:href="#DejaVuSans-51" transform="translate(708.1875 0)"/>
      <use xlink:href="#DejaVuSans-55" transform="translate(771.5625 0)"/>
      <use xlink:href="#DejaVuSans-48" transform="translate(810.46875 0)"/>
      <use xlink:href="#DejaVuSans-5a" transform="translate(872 0)"/>
      <use xlink:href="#DejaVuSans-44" transform="translate(953.78125 0)"/>
      <use xlink:href="#DejaVuSans-55" transform="translate(1015.0625 0)"/>
      <use xlink:href="#DejaVuSans-47" transform="translate(1054.421875 0)"/>
      <use xlink:href="#DejaVuSans-48" transform="translate(1117.90625 0)"/>
      <use xlink:href="#DejaVuSans-47" transform="translate(1179.4375 0)"/>
      <use xlink:href="#DejaVuSans-3" transform="translate(1242.921875 0)"/>
      <use xlink:href="#DejaVuSans-27" transform="translate(1274.703125 0)"/>
      <use xlink:href="#DejaVuSans-30" transform="translate(1351.703125 0)"/>
      <use xlink:href="#DejaVuSans-36" transform="translate(1437.984375 0)"/>
      <use xlink:href="#DejaVuSans-3" transform="translate(1501.46875 0)"/>
      <use xlink:href="#DejaVuSans-55" transform="translate(1533.25 0)"/>
      <use xlink:href="#DejaVuSans-48" transform="translate(1572.15625 0)"/>
      <use xlink:href="#DejaVuSans-56" transform="translate(1633.6875 0)"/>
      <use xlink:href="#DejaVuSans-53" transform="translate(1685.78125 0)"/>
      <use xlink:href="#DejaVuSans-52" transform="translate(1749.265625 0)"/>
      <use xlink:href="#DejaVuSans-51" transform="translate(1810.453125 0)"/>
      <use xlink:href="#DejaVuSans-56" transform="translate(1873.828125 0)"/>
      <use xlink:href="#DejaVuSans-48" transform="translate(1925.921875 0)"/>
      <use xlink:href="#DejaVuSans-3" transform="translate(1987.453125 0)"/>
      <use xlink:href="#DejaVuSans-b" transform="translate(2019.234375 0)"/>
      <use xlink:href="#DejaVuSans-49" transform="translate(2058.25 0)"/>
      <use xlink:href="#DejaVuSans-55" transform="translate(2093.453125 0)"/>
      <use xlink:href="#DejaVuSans-44" transform="translate(2134.5625 0)"/>
      <use xlink:href="#DejaVuSans-46" transform="translate(2195.84375 0)"/>
      <use xlink:href="#DejaVuSans-57" transform="translate(2250.828125 0)"/>
      <use xlink:href="#DejaVuSans-4c" transform="translate(2290.03125 0)"/>
      <use xlink:href="#DejaVuSans-52" transform="translate(2317.8125 0)"/>
      <use xlink:href="#DejaVuSans-51" transform="translate(2379 0)"/>
      <use xlink:href="#DejaVuSans-44" transform="translate(2442.375 0)"/>
      <use xlink:href="#DejaVuSans-4f" transform="translate(2503.65625 0)"/>
      <use xlink:href="#DejaVuSans-3" transform="translate(2531.4375 0)"/>
      <use xlink:href="#DejaVuSans-47" transform="translate(2563.21875 0)"/>
      <use xlink:href="#DejaVuSans-29" transform="translate(2626.703125 0)"/>
      <use xlink:href="#DejaVuSans-12" transform="translate(2684.21875 0)"/>
      <use xlink:href="#DejaVuSans-29" transform="translate(2717.90625 0)"/>
      <use xlink:href="#DejaVuSans-c" transform="translate(2775.421875 0)"/>
     </g>
    </g>
   </g>
   <g id="matplotlib.axis_2">
    <g id="ytick_1">
     <g id="line2d_13">
      <defs>
       <path id="m17da8e0d62" d="M 0 0
L -3.5 0
" style="stroke: #000000; stroke-width: 0.8"/>
      </defs>
      <g>
       <use xlink:href="#m17da8e0d62" x="129.923125" y="294.019805" style="stroke: #000000; stroke-width: 0.8"/>
      </g>
     </g>
     <g id="text_8">
      <!-- unfiltered · irls · 500 ms -->
      <g transform="translate(15.482813 297.439102) scale(0.09 -0.09)">
       <defs>
        <path id="DejaVuSans-13af" d="M 3431 3500
L 3431 0
L 2853 0
L 2853 3053
L 1275 3053
L 1275 0
L 697 0
L 697 3053
L 147 3053
L 147 3500
L 697 3500
L 697 3744
Q 697 4316 967 4589
Q 1238 4863 1797 4863
L 2375 4863
L 2375 4384
L 1825 4384
Q 1516 4384 1395 4259
Q 1275 4134 1275 3809
L 1275 3500
L 3431 3500
z
M 2853 4856
L 3431 4856
L 3431 4128
L 2853 4128
L 2853 4856
z
" transform="scale(0.015625)"/>
        <path id="DejaVuSans-79" d="M 684 2619
L 1344 2619
L 1344 1825
L 684 1825
L 684 2619
z
" transform="scale(0.015625)"/>
        <path id="DejaVuSans-50" d="M 3328 2828
Q 3544 3216 3844 3400
Q 4144 3584 4550 3584
Q 5097 3584 5394 3201
Q 5691 2819 5691 2113
L 5691 0
L 5113 0
L 5113 2094
Q 5113 2597 4934 2840
Q 4756 3084 4391 3084
Q 3944 3084 3684 2787
Q 3425 2491 3425 1978
L 3425 0
L 2847 0
L 2847 2094
Q 2847 2600 2669 2842
Q 2491 3084 2119 3084
Q 1678 3084 1418 2786
Q 1159 2488 1159 1978
L 1159 0
L 581 0
L 581 3500
L 1159 3500
L 1159 2956
Q 1356 3278 1631 3431
Q 1906 3584 2284 3584
Q 2666 3584 2933 3390
Q 3200 3197 3328 2828
z
" transform="scale(0.015625)"/>
       </defs>
       <use xlink:href="#DejaVuSans-58"/>
       <use xlink:href="#DejaVuSans-51" transform="translate(63.375 0)"/>
       <use xlink:href="#DejaVuSans-13af" transform="translate(126.75 0)"/>
       <use xlink:href="#DejaVuSans-4f" transform="translate(189.734375 0)"/>
       <use xlink:href="#DejaVuSans-57" transform="translate(217.515625 0)"/>
       <use xlink:href="#DejaVuSans-48" transform="translate(256.71875 0)"/>
       <use xlink:href="#DejaVuSans-55" transform="translate(318.25 0)"/>
       <use xlink:href="#DejaVuSans-48" transform="translate(357.15625 0)"/>
       <use xlink:href="#DejaVuSans-47" transform="translate(418.6875 0)"/>
       <use xlink:href="#DejaVuSans-3" transform="translate(482.171875 0)"/>
       <use xlink:href="#DejaVuSans-79" transform="translate(513.953125 0)"/>
       <use xlink:href="#DejaVuSans-3" transform="translate(545.734375 0)"/>
       <use xlink:href="#DejaVuSans-4c" transform="translate(577.515625 0)"/>
       <use xlink:href="#DejaVuSans-55" transform="translate(605.296875 0)"/>
       <use xlink:href="#DejaVuSans-4f" transform="translate(646.40625 0)"/>
       <use xlink:href="#DejaVuSans-56" transform="translate(674.1875 0)"/>
       <use xlink:href="#DejaVuSans-3" transform="translate(726.28125 0)"/>
       <use xlink:href="#DejaVuSans-79" transform="translate(758.0625 0)"/>
       <use xlink:href="#DejaVuSans-3" transform="translate(789.84375 0)"/>
       <use xlink:href="#DejaVuSans-18" transform="translate(821.625 0)"/>
       <use xlink:href="#DejaVuSans-13" transform="translate(885.25 0)"/>
       <use xlink:href="#DejaVuSans-13" transform="translate(948.875 0)"/>
       <use xlink:href="#DejaVuSans-3" transform="translate(1012.5 0)"/>
       <use xlink:href="#DejaVuSans-50" transform="translate(1044.28125 0)"/>
       <use xlink:href="#DejaVuSans-56" transform="translate(1141.6875 0)"/>
      </g>
     </g>
    </g>
    <g id="ytick_2">
     <g id="line2d_14">
      <g>
       <use xlink:href="#m17da8e0d62" x="129.923125" y="257.282416" style="stroke: #000000; stroke-width: 0.8"/>
      </g>
     </g>
     <g id="text_9">
      <!-- unfiltered · ols · 500 ms -->
      <g transform="translate(16.176094 260.701713) scale(0.09 -0.09)">
       <use xlink:href="#DejaVuSans-58"/>
       <use xlink:href="#DejaVuSans-51" transform="translate(63.375 0)"/>
       <use xlink:href="#DejaVuSans-13af" transform="translate(126.75 0)"/>
       <use xlink:href="#DejaVuSans-4f" transform="translate(189.734375 0)"/>
       <use xlink:href="#DejaVuSans-57" transform="translate(217.515625 0)"/>
       <use xlink:href="#DejaVuSans-48" transform="translate(256.71875 0)"/>
       <use xlink:href="#DejaVuSans-55" transform="translate(318.25 0)"/>
       <use xlink:href="#DejaVuSans-48" transform="translate(357.15625 0)"/>
       <use xlink:href="#DejaVuSans-47" transform="translate(418.6875 0)"/>
       <use xlink:href="#DejaVuSans-3" transform="translate(482.171875 0)"/>
       <use xlink:href="#DejaVuSans-79" transform="translate(513.953125 0)"/>
       <use xlink:href="#DejaVuSans-3" transform="translate(545.734375 0)"/>
       <use xlink:href="#DejaVuSans-52" transform="translate(577.515625 0)"/>
       <use xlink:href="#DejaVuSans-4f" transform="translate(638.703125 0)"/>
       <use xlink:href="#DejaVuSans-56" transform="translate(666.484375 0)"/>
       <use xlink:href="#DejaVuSans-3" transform="translate(718.578125 0)"/>
       <use xlink:href="#DejaVuSans-79" transform="translate(750.359375 0)"/>
       <use xlink:href="#DejaVuSans-3" transform="translate(782.140625 0)"/>
       <use xlink:href="#DejaVuSans-18" transform="translate(813.921875 0)"/>
       <use xlink:href="#DejaVuSans-13" transform="translate(877.546875 0)"/>
       <use xlink:href="#DejaVuSans-13" transform="translate(941.171875 0)"/>
       <use xlink:href="#DejaVuSans-3" transform="translate(1004.796875 0)"/>
       <use xlink:href="#DejaVuSans-50" transform="translate(1036.578125 0)"/>
       <use xlink:href="#DejaVuSans-56" transform="translate(1133.984375 0)"/>
      </g>
     </g>
    </g>
    <g id="ytick_3">
     <g id="line2d_15">
      <g>
       <use xlink:href="#m17da8e0d62" x="129.923125" y="220.545028" style="stroke: #000000; stroke-width: 0.8"/>
      </g>
     </g>
     <g id="text_10">
      <!-- filtered · irls · 500 ms -->
      <g transform="translate(26.890313 223.964325) scale(0.09 -0.09)">
       <use xlink:href="#DejaVuSans-13af"/>
       <use xlink:href="#DejaVuSans-4f" transform="translate(62.984375 0)"/>
       <use xlink:href="#DejaVuSans-57" transform="translate(90.765625 0)"/>
       <use xlink:href="#DejaVuSans-48" transform="translate(129.96875 0)"/>
       <use xlink:href="#DejaVuSans-55" transform="translate(191.5 0)"/>
       <use xlink:href="#DejaVuSans-48" transform="translate(230.40625 0)"/>
       <use xlink:href="#DejaVuSans-47" transform="translate(291.9375 0)"/>
       <use xlink:href="#DejaVuSans-3" transform="translate(355.421875 0)"/>
       <use xlink:href="#DejaVuSans-79" transform="translate(387.203125 0)"/>
       <use xlink:href="#DejaVuSans-3" transform="translate(418.984375 0)"/>
       <use xlink:href="#DejaVuSans-4c" transform="translate(450.765625 0)"/>
       <use xlink:href="#DejaVuSans-55" transform="translate(478.546875 0)"/>
       <use xlink:href="#DejaVuSans-4f" transform="translate(519.65625 0)"/>
       <use xlink:href="#DejaVuSans-56" transform="translate(547.4375 0)"/>
       <use xlink:href="#DejaVuSans-3" transform="translate(599.53125 0)"/>
       <use xlink:href="#DejaVuSans-79" transform="translate(631.3125 0)"/>
       <use xlink:href="#DejaVuSans-3" transform="translate(663.09375 0)"/>
       <use xlink:href="#DejaVuSans-18" transform="translate(694.875 0)"/>
       <use xlink:href="#DejaVuSans-13" transform="translate(758.5 0)"/>
       <use xlink:href="#DejaVuSans-13" transform="translate(822.125 0)"/>
       <use xlink:href="#DejaVuSans-3" transform="translate(885.75 0)"/>
       <use xlink:href="#DejaVuSans-50" transform="translate(917.53125 0)"/>
       <use xlink:href="#DejaVuSans-56" transform="translate(1014.9375 0)"/>
      </g>
     </g>
    </g>
    <g id="ytick_4">
     <g id="line2d_16">
      <g>
       <use xlink:href="#m17da8e0d62" x="129.923125" y="183.80764" style="stroke: #000000; stroke-width: 0.8"/>
      </g>
     </g>
     <g id="text_11">
      <!-- filtered · ols · 500 ms -->
      <g transform="translate(27.583594 187.226936) scale(0.09 -0.09)">
       <use xlink:href="#DejaVuSans-13af"/>
       <use xlink:href="#DejaVuSans-4f" transform="translate(62.984375 0)"/>
       <use xlink:href="#DejaVuSans-57" transform="translate(90.765625 0)"/>
       <use xlink:href="#DejaVuSans-48" transform="translate(129.96875 0)"/>
       <use xlink:href="#DejaVuSans-55" transform="translate(191.5 0)"/>
       <use xlink:href="#DejaVuSans-48" transform="translate(230.40625 0)"/>
       <use xlink:href="#DejaVuSans-47" transform="translate(291.9375 0)"/>
       <use xlink:href="#DejaVuSans-3" transform="translate(355.421875 0)"/>
       <use xlink:href="#DejaVuSans-79" transform="translate(387.203125 0)"/>
       <use xlink:href="#DejaVuSans-3" transform="translate(418.984375 0)"/>
       <use xlink:href="#DejaVuSans-52" transform="translate(450.765625 0)"/>
       <use xlink:href="#DejaVuSans-4f" transform="translate(511.953125 0)"/>
       <use xlink:href="#DejaVuSans-56" transform="translate(539.734375 0)"/>
       <use xlink:href="#DejaVuSans-3" transform="translate(591.828125 0)"/>
       <use xlink:href="#DejaVuSans-79" transform="translate(623.609375 0)"/>
       <use xlink:href="#DejaVuSans-3" transform="translate(655.390625 0)"/>
       <use xlink:href="#DejaVuSans-18" transform="translate(687.171875 0)"/>
       <use xlink:href="#DejaVuSans-13" transform="translate(750.796875 0)"/>
       <use xlink:href="#DejaVuSans-13" transform="translate(814.421875 0)"/>
       <use xlink:href="#DejaVuSans-3" transform="translate(878.046875 0)"/>
       <use xlink:href="#DejaVuSans-50" transform="translate(909.828125 0)"/>
       <use xlink:href="#DejaVuSans-56" transform="translate(1007.234375 0)"/>
      </g>
     </g>
    </g>
    <g id="ytick_5">
     <g id="line2d_17">
      <g>
       <use xlink:href="#m17da8e0d62" x="129.923125" y="147.070251" style="stroke: #000000; stroke-width: 0.8"/>
      </g>
     </g>
     <g id="text_12">
      <!-- unfiltered · irls · 1500 ms -->
      <g transform="translate(9.756563 150.489548) scale(0.09 -0.09)">
       <use xlink:href="#DejaVuSans-58"/>
       <use xlink:href="#DejaVuSans-51" transform="translate(63.375 0)"/>
       <use xlink:href="#DejaVuSans-13af" transform="translate(126.75 0)"/>
       <use xlink:href="#DejaVuSans-4f" transform="translate(189.734375 0)"/>
       <use xlink:href="#DejaVuSans-57" transform="translate(217.515625 0)"/>
       <use xlink:href="#DejaVuSans-48" transform="translate(256.71875 0)"/>
       <use xlink:href="#DejaVuSans-55" transform="translate(318.25 0)"/>
       <use xlink:href="#DejaVuSans-48" transform="translate(357.15625 0)"/>
       <use xlink:href="#DejaVuSans-47" transform="translate(418.6875 0)"/>
       <use xlink:href="#DejaVuSans-3" transform="translate(482.171875 0)"/>
       <use xlink:href="#DejaVuSans-79" transform="translate(513.953125 0)"/>
       <use xlink:href="#DejaVuSans-3" transform="translate(545.734375 0)"/>
       <use xlink:href="#DejaVuSans-4c" transform="translate(577.515625 0)"/>
       <use xlink:href="#DejaVuSans-55" transform="translate(605.296875 0)"/>
       <use xlink:href="#DejaVuSans-4f" transform="translate(646.40625 0)"/>
       <use xlink:href="#DejaVuSans-56" transform="translate(674.1875 0)"/>
       <use xlink:href="#DejaVuSans-3" transform="translate(726.28125 0)"/>
       <use xlink:href="#DejaVuSans-79" transform="translate(758.0625 0)"/>
       <use xlink:href="#DejaVuSans-3" transform="translate(789.84375 0)"/>
       <use xlink:href="#DejaVuSans-14" transform="translate(821.625 0)"/>
       <use xlink:href="#DejaVuSans-18" transform="translate(885.25 0)"/>
       <use xlink:href="#DejaVuSans-13" transform="translate(948.875 0)"/>
       <use xlink:href="#DejaVuSans-13" transform="translate(1012.5 0)"/>
       <use xlink:href="#DejaVuSans-3" transform="translate(1076.125 0)"/>
       <use xlink:href="#DejaVuSans-50" transform="translate(1107.90625 0)"/>
       <use xlink:href="#DejaVuSans-56" transform="translate(1205.3125 0)"/>
      </g>
     </g>
    </g>
    <g id="ytick_6">
     <g id="line2d_18">
      <g>
       <use xlink:href="#m17da8e0d62" x="129.923125" y="110.332863" style="stroke: #000000; stroke-width: 0.8"/>
      </g>
     </g>
     <g id="text_13">
      <!-- unfiltered · ols · 1500 ms -->
      <g transform="translate(10.449844 113.75216) scale(0.09 -0.09)">
       <use xlink:href="#DejaVuSans-58"/>
       <use xlink:href="#DejaVuSans-51" transform="translate(63.375 0)"/>
       <use xlink:href="#DejaVuSans-13af" transform="translate(126.75 0)"/>
       <use xlink:href="#DejaVuSans-4f" transform="translate(189.734375 0)"/>
       <use xlink:href="#DejaVuSans-57" transform="translate(217.515625 0)"/>
       <use xlink:href="#DejaVuSans-48" transform="translate(256.71875 0)"/>
       <use xlink:href="#DejaVuSans-55" transform="translate(318.25 0)"/>
       <use xlink:href="#DejaVuSans-48" transform="translate(357.15625 0)"/>
       <use xlink:href="#DejaVuSans-47" transform="translate(418.6875 0)"/>
       <use xlink:href="#DejaVuSans-3" transform="translate(482.171875 0)"/>
       <use xlink:href="#DejaVuSans-79" transform="translate(513.953125 0)"/>
       <use xlink:href="#DejaVuSans-3" transform="translate(545.734375 0)"/>
       <use xlink:href="#DejaVuSans-52" transform="translate(577.515625 0)"/>
       <use xlink:href="#DejaVuSans-4f" transform="translate(638.703125 0)"/>
       <use xlink:href="#DejaVuSans-56" transform="translate(666.484375 0)"/>
       <use xlink:href="#DejaVuSans-3" transform="translate(718.578125 0)"/>
       <use xlink:href="#DejaVuSans-79" transform="translate(750.359375 0)"/>
       <use xlink:href="#DejaVuSans-3" transform="translate(782.140625 0)"/>
       <use xlink:href="#DejaVuSans-14" transform="translate(813.921875 0)"/>
       <use xlink:href="#DejaVuSans-18" transform="translate(877.546875 0)"/>
       <use xlink:href="#DejaVuSans-13" transform="translate(941.171875 0)"/>
       <use xlink:href="#DejaVuSans-13" transform="translate(1004.796875 0)"/>
       <use xlink:href="#DejaVuSans-3" transform="translate(1068.421875 0)"/>
       <use xlink:href="#DejaVuSans-50" transform="translate(1100.203125 0)"/>
       <use xlink:href="#DejaVuSans-56" transform="translate(1197.609375 0)"/>
      </g>
     </g>
    </g>
    <g id="ytick_7">
     <g id="line2d_19">
      <g>
       <use xlink:href="#m17da8e0d62" x="129.923125" y="73.595474" style="stroke: #000000; stroke-width: 0.8"/>
      </g>
     </g>
     <g id="text_14">
      <!-- filtered · irls · 1500 ms -->
      <g transform="translate(21.164062 77.014771) scale(0.09 -0.09)">
       <use xlink:href="#DejaVuSans-13af"/>
       <use xlink:href="#DejaVuSans-4f" transform="translate(62.984375 0)"/>
       <use xlink:href="#DejaVuSans-57" transform="translate(90.765625 0)"/>
       <use xlink:href="#DejaVuSans-48" transform="translate(129.96875 0)"/>
       <use xlink:href="#DejaVuSans-55" transform="translate(191.5 0)"/>
       <use xlink:href="#DejaVuSans-48" transform="translate(230.40625 0)"/>
       <use xlink:href="#DejaVuSans-47" transform="translate(291.9375 0)"/>
       <use xlink:href="#DejaVuSans-3" transform="translate(355.421875 0)"/>
       <use xlink:href="#DejaVuSans-79" transform="translate(387.203125 0)"/>
       <use xlink:href="#DejaVuSans-3" transform="translate(418.984375 0)"/>
       <use xlink:href="#DejaVuSans-4c" transform="translate(450.765625 0)"/>
       <use xlink:href="#DejaVuSans-55" transform="translate(478.546875 0)"/>
       <use xlink:href="#DejaVuSans-4f" transform="translate(519.65625 0)"/>
       <use xlink:href="#DejaVuSans-56" transform="translate(547.4375 0)"/>
       <use xlink:href="#DejaVuSans-3" transform="translate(599.53125 0)"/>
       <use xlink:href="#DejaVuSans-79" transform="translate(631.3125 0)"/>
       <use xlink:href="#DejaVuSans-3" transform="translate(663.09375 0)"/>
       <use xlink:href="#DejaVuSans-14" transform="translate(694.875 0)"/>
       <use xlink:href="#DejaVuSans-18" transform="translate(758.5 0)"/>
       <use xlink:href="#DejaVuSans-13" transform="translate(822.125 0)"/>
       <use xlink:href="#DejaVuSans-13" transform="translate(885.75 0)"/>
       <use xlink:href="#DejaVuSans-3" transform="translate(949.375 0)"/>
       <use xlink:href="#DejaVuSans-50" transform="translate(981.15625 0)"/>
       <use xlink:href="#DejaVuSans-56" transform="translate(1078.5625 0)"/>
      </g>
     </g>
    </g>
    <g id="ytick_8">
     <g id="line2d_20">
      <g>
       <use xlink:href="#m17da8e0d62" x="129.923125" y="36.858086" style="stroke: #000000; stroke-width: 0.8"/>
      </g>
     </g>
     <g id="text_15">
      <!-- filtered · ols · 1500 ms -->
      <g transform="translate(21.857344 40.277383) scale(0.09 -0.09)">
       <use xlink:href="#DejaVuSans-13af"/>
       <use xlink:href="#DejaVuSans-4f" transform="translate(62.984375 0)"/>
       <use xlink:href="#DejaVuSans-57" transform="translate(90.765625 0)"/>
       <use xlink:href="#DejaVuSans-48" transform="translate(129.96875 0)"/>
       <use xlink:href="#DejaVuSans-55" transform="translate(191.5 0)"/>
       <use xlink:href="#DejaVuSans-48" transform="translate(230.40625 0)"/>
       <use xlink:href="#DejaVuSans-47" transform="translate(291.9375 0)"/>
       <use xlink:href="#DejaVuSans-3" transform="translate(355.421875 0)"/>
       <use xlink:href="#DejaVuSans-79" transform="translate(387.203125 0)"/>
       <use xlink:href="#DejaVuSans-3" transform="translate(418.984375 0)"/>
       <use xlink:href="#DejaVuSans-52" transform="translate(450.765625 0)"/>
       <use xlink:href="#DejaVuSans-4f" transform="translate(511.953125 0)"/>
       <use xlink:href="#DejaVuSans-56" transform="translate(539.734375 0)"/>
       <use xlink:href="#DejaVuSans-3" transform="translate(591.828125 0)"/>
       <use xlink:href="#DejaVuSans-79" transform="translate(623.609375 0)"/>
       <use xlink:href="#DejaVuSans-3" transform="translate(655.390625 0)"/>
       <use xlink:href="#DejaVuSans-14" transform="translate(687.171875 0)"/>
       <use xlink:href="#DejaVuSans-18" transform="translate(750.796875 0)"/>
       <use xlink:href="#DejaVuSans-13" transform="translate(814.421875 0)"/>
       <use xlink:href="#DejaVuSans-13" transform="translate(878.046875 0)"/>
       <use xlink:href="#DejaVuSans-3" transform="translate(941.671875 0)"/>
       <use xlink:href="#DejaVuSans-50" transform="translate(973.453125 0)"/>
       <use xlink:href="#DejaVuSans-56" transform="translate(1070.859375 0)"/>
      </g>
     </g>
    </g>
   </g>
   <g id="LineCollection_1">
    <path d="M 153.279091 294.019805
L 595.07391 294.019805
" clip-path="url(#pdc5f30e6a3)" style="fill: none; stroke: #0f766e; stroke-width: 1.5"/>
   </g>
   <g id="line2d_21">
    <defs>
     <path id="m3d325719f3" d="M 0 3
L 0 -3
" style="stroke: #0f766e"/>
    </defs>
    <g clip-path="url(#pdc5f30e6a3)">
     <use xlink:href="#m3d325719f3" x="153.279091" y="294.019805" style="fill: #0f766e; stroke: #0f766e"/>
    </g>
   </g>
   <g id="line2d_22">
    <g clip-path="url(#pdc5f30e6a3)">
     <use xlink:href="#m3d325719f3" x="595.07391" y="294.019805" style="fill: #0f766e; stroke: #0f766e"/>
    </g>
   </g>
   <g id="LineCollection_2">
    <path d="M 153.705827 257.282416
L 594.825397 257.282416
" clip-path="url(#pdc5f30e6a3)" style="fill: none; stroke: #0f766e; stroke-width: 1.5"/>
   </g>
   <g id="line2d_23">
    <g clip-path="url(#pdc5f30e6a3)">
     <use xlink:href="#m3d325719f3" x="153.705827" y="257.282416" style="fill: #0f766e; stroke: #0f766e"/>
    </g>
   </g>
   <g id="line2d_24">
    <g clip-path="url(#pdc5f30e6a3)">
     <use xlink:href="#m3d325719f3" x="594.825397" y="257.282416" style="fill: #0f766e; stroke: #0f766e"/>
    </g>
   </g>
   <g id="LineCollection_3">
    <path d="M 152.83501 220.545028
L 596.523597 220.545028
" clip-path="url(#pdc5f30e6a3)" style="fill: none; stroke: #0f766e; stroke-width: 1.5"/>
   </g>
   <g id="line2d_25">
    <g clip-path="url(#pdc5f30e6a3)">
     <use xlink:href="#m3d325719f3" x="152.83501" y="220.545028" style="fill: #0f766e; stroke: #0f766e"/>
    </g>
   </g>
   <g id="line2d_26">
    <g clip-path="url(#pdc5f30e6a3)">
     <use xlink:href="#m3d325719f3" x="596.523597" y="220.545028" style="fill: #0f766e; stroke: #0f766e"/>
    </g>
   </g>
   <g id="LineCollection_4">
    <path d="M 153.296024 183.80764
L 596.286894 183.80764
" clip-path="url(#pdc5f30e6a3)" style="fill: none; stroke: #0f766e; stroke-width: 1.5"/>
   </g>
   <g id="line2d_27">
    <g clip-path="url(#pdc5f30e6a3)">
     <use xlink:href="#m3d325719f3" x="153.296024" y="183.80764" style="fill: #0f766e; stroke: #0f766e"/>
    </g>
   </g>
   <g id="line2d_28">
    <g clip-path="url(#pdc5f30e6a3)">
     <use xlink:href="#m3d325719f3" x="596.286894" y="183.80764" style="fill: #0f766e; stroke: #0f766e"/>
    </g>
   </g>
   <g id="LineCollection_5">
    <path d="M 153.093858 147.070251
L 600.343634 147.070251
" clip-path="url(#pdc5f30e6a3)" style="fill: none; stroke: #0f766e; stroke-width: 1.5"/>
   </g>
   <g id="line2d_29">
    <g clip-path="url(#pdc5f30e6a3)">
     <use xlink:href="#m3d325719f3" x="153.093858" y="147.070251" style="fill: #0f766e; stroke: #0f766e"/>
    </g>
   </g>
   <g id="line2d_30">
    <g clip-path="url(#pdc5f30e6a3)">
     <use xlink:href="#m3d325719f3" x="600.343634" y="147.070251" style="fill: #0f766e; stroke: #0f766e"/>
    </g>
   </g>
   <g id="LineCollection_6">
    <path d="M 153.402039 110.332863
L 600.20127 110.332863
" clip-path="url(#pdc5f30e6a3)" style="fill: none; stroke: #0f766e; stroke-width: 1.5"/>
   </g>
   <g id="line2d_31">
    <g clip-path="url(#pdc5f30e6a3)">
     <use xlink:href="#m3d325719f3" x="153.402039" y="110.332863" style="fill: #0f766e; stroke: #0f766e"/>
    </g>
   </g>
   <g id="line2d_32">
    <g clip-path="url(#pdc5f30e6a3)">
     <use xlink:href="#m3d325719f3" x="600.20127" y="110.332863" style="fill: #0f766e; stroke: #0f766e"/>
    </g>
   </g>
   <g id="LineCollection_7">
    <path d="M 152.37571 73.595474
L 601.427415 73.595474
" clip-path="url(#pdc5f30e6a3)" style="fill: none; stroke: #6d28d9; stroke-width: 1.5"/>
   </g>
   <g id="line2d_33">
    <defs>
     <path id="mfec1cd099b" d="M 0 3
L 0 -3
" style="stroke: #6d28d9"/>
    </defs>
    <g clip-path="url(#pdc5f30e6a3)">
     <use xlink:href="#mfec1cd099b" x="152.37571" y="73.595474" style="fill: #6d28d9; stroke: #6d28d9"/>
    </g>
   </g>
   <g id="line2d_34">
    <g clip-path="url(#pdc5f30e6a3)">
     <use xlink:href="#mfec1cd099b" x="601.427415" y="73.595474" style="fill: #6d28d9; stroke: #6d28d9"/>
    </g>
   </g>
   <g id="LineCollection_8">
    <path d="M 152.708661 36.858086
L 601.288542 36.858086
" clip-path="url(#pdc5f30e6a3)" style="fill: none; stroke: #0f766e; stroke-width: 1.5"/>
   </g>
   <g id="line2d_35">
    <g clip-path="url(#pdc5f30e6a3)">
     <use xlink:href="#m3d325719f3" x="152.708661" y="36.858086" style="fill: #0f766e; stroke: #0f766e"/>
    </g>
   </g>
   <g id="line2d_36">
    <g clip-path="url(#pdc5f30e6a3)">
     <use xlink:href="#m3d325719f3" x="601.288542" y="36.858086" style="fill: #0f766e; stroke: #0f766e"/>
    </g>
   </g>
   <g id="line2d_37">
    <path d="M 267.650481 306.877891
L 267.650481 24
" clip-path="url(#pdc5f30e6a3)" style="fill: none; stroke-dasharray: 3.7,1.6; stroke-dashoffset: 0; stroke: #b45309"/>
   </g>
   <g id="line2d_38">
    <defs>
     <path id="md33144b987" d="M 0 2.5
C 0.663008 2.5 1.29895 2.236584 1.767767 1.767767
C 2.236584 1.29895 2.5 0.663008 2.5 0
C 2.5 -0.663008 2.236584 -1.29895 1.767767 -1.767767
C 1.29895 -2.236584 0.663008 -2.5 0 -2.5
C -0.663008 -2.5 -1.29895 -2.236584 -1.767767 -1.767767
C -2.236584 -1.29895 -2.5 -0.663008 -2.5 0
C -2.5 0.663008 -2.236584 1.29895 -1.767767 1.767767
C -1.29895 2.236584 -0.663008 2.5 0 2.5
z
" style="stroke: #0f766e"/>
    </defs>
    <g clip-path="url(#pdc5f30e6a3)">
     <use xlink:href="#md33144b987" x="374.176501" y="294.019805" style="fill: #0f766e; stroke: #0f766e"/>
    </g>
   </g>
   <g id="line2d_39">
    <g clip-path="url(#pdc5f30e6a3)">
     <use xlink:href="#md33144b987" x="374.265612" y="257.282416" style="fill: #0f766e; stroke: #0f766e"/>
    </g>
   </g>
   <g id="line2d_40">
    <g clip-path="url(#pdc5f30e6a3)">
     <use xlink:href="#md33144b987" x="374.679304" y="220.545028" style="fill: #0f766e; stroke: #0f766e"/>
    </g>
   </g>
   <g id="line2d_41">
    <g clip-path="url(#pdc5f30e6a3)">
     <use xlink:href="#md33144b987" x="374.791459" y="183.80764" style="fill: #0f766e; stroke: #0f766e"/>
    </g>
   </g>
   <g id="line2d_42">
    <g clip-path="url(#pdc5f30e6a3)">
     <use xlink:href="#md33144b987" x="376.718746" y="147.070251" style="fill: #0f766e; stroke: #0f766e"/>
    </g>
   </g>
   <g id="line2d_43">
    <g clip-path="url(#pdc5f30e6a3)">
     <use xlink:href="#md33144b987" x="376.801655" y="110.332863" style="fill: #0f766e; stroke: #0f766e"/>
    </g>
   </g>
   <g id="line2d_44">
    <defs>
     <path id="m62ad986e5d" d="M 0 3
C 0.795609 3 1.55874 2.683901 2.12132 2.12132
C 2.683901 1.55874 3 0.795609 3 0
C 3 -0.795609 2.683901 -1.55874 2.12132 -2.12132
C 1.55874 -2.683901 0.795609 -3 0 -3
C -0.795609 -3 -1.55874 -2.683901 -2.12132 -2.12132
C -2.683901 -1.55874 -3 -0.795609 -3 0
C -3 0.795609 -2.683901 1.55874 -2.12132 2.12132
C -1.55874 2.683901 -0.795609 3 0 3
z
" style="stroke: #6d28d9"/>
    </defs>
    <g clip-path="url(#pdc5f30e6a3)">
     <use xlink:href="#m62ad986e5d" x="376.901562" y="73.595474" style="fill: #6d28d9; stroke: #6d28d9"/>
    </g>
   </g>
   <g id="line2d_45">
    <g clip-path="url(#pdc5f30e6a3)">
     <use xlink:href="#md33144b987" x="376.998602" y="36.858086" style="fill: #0f766e; stroke: #0f766e"/>
    </g>
   </g>
   <g id="patch_3">
    <path d="M 129.923125 306.877891
L 129.923125 24
" style="fill: none; stroke: #000000; stroke-width: 0.8; stroke-linejoin: miter; stroke-linecap: square"/>
   </g>
   <g id="patch_4">
    <path d="M 129.923125 306.877891
L 623.88 306.877891
" style="fill: none; stroke: #000000; stroke-width: 0.8; stroke-linejoin: miter; stroke-linecap: square"/>
   </g>
   <g id="text_16">
    <!-- purple = declared reference -->
    <g style="fill: #6d28d9" transform="translate(511.04875 18.342442) scale(0.08 -0.08)">
     <defs>
      <path id="DejaVuSans-20" d="M 678 2906
L 4684 2906
L 4684 2381
L 678 2381
L 678 2906
z
M 678 1631
L 4684 1631
L 4684 1100
L 678 1100
L 678 1631
z
" transform="scale(0.015625)"/>
     </defs>
     <use xlink:href="#DejaVuSans-53"/>
     <use xlink:href="#DejaVuSans-58" transform="translate(63.484375 0)"/>
     <use xlink:href="#DejaVuSans-55" transform="translate(126.859375 0)"/>
     <use xlink:href="#DejaVuSans-53" transform="translate(167.96875 0)"/>
     <use xlink:href="#DejaVuSans-4f" transform="translate(231.453125 0)"/>
     <use xlink:href="#DejaVuSans-48" transform="translate(259.234375 0)"/>
     <use xlink:href="#DejaVuSans-3" transform="translate(320.765625 0)"/>
     <use xlink:href="#DejaVuSans-20" transform="translate(352.546875 0)"/>
     <use xlink:href="#DejaVuSans-3" transform="translate(436.34375 0)"/>
     <use xlink:href="#DejaVuSans-47" transform="translate(468.125 0)"/>
     <use xlink:href="#DejaVuSans-48" transform="translate(531.609375 0)"/>
     <use xlink:href="#DejaVuSans-46" transform="translate(593.140625 0)"/>
     <use xlink:href="#DejaVuSans-4f" transform="translate(648.125 0)"/>
     <use xlink:href="#DejaVuSans-44" transform="translate(675.90625 0)"/>
     <use xlink:href="#DejaVuSans-55" transform="translate(737.1875 0)"/>
     <use xlink:href="#DejaVuSans-48" transform="translate(776.09375 0)"/>
     <use xlink:href="#DejaVuSans-47" transform="translate(837.625 0)"/>
     <use xlink:href="#DejaVuSans-3" transform="translate(901.109375 0)"/>
     <use xlink:href="#DejaVuSans-55" transform="translate(932.890625 0)"/>
     <use xlink:href="#DejaVuSans-48" transform="translate(971.796875 0)"/>
     <use xlink:href="#DejaVuSans-49" transform="translate(1033.328125 0)"/>
     <use xlink:href="#DejaVuSans-48" transform="translate(1068.53125 0)"/>
     <use xlink:href="#DejaVuSans-55" transform="translate(1130.0625 0)"/>
     <use xlink:href="#DejaVuSans-48" transform="translate(1168.96875 0)"/>
     <use xlink:href="#DejaVuSans-51" transform="translate(1230.5 0)"/>
     <use xlink:href="#DejaVuSans-46" transform="translate(1293.875 0)"/>
     <use xlink:href="#DejaVuSans-48" transform="translate(1348.859375 0)"/>
    </g>
   </g>
   <g id="text_17">
    <!-- Six-animal public NWB robustness analysis -->
    <g transform="translate(129.923125 18) scale(0.108 -0.108)">
     <defs>
      <path id="DejaVuSans-Bold-36" d="M 3834 4519
L 3834 3531
Q 3450 3703 3084 3790
Q 2719 3878 2394 3878
Q 1963 3878 1756 3759
Q 1550 3641 1550 3391
Q 1550 3203 1689 3098
Q 1828 2994 2194 2919
L 2706 2816
Q 3484 2659 3812 2340
Q 4141 2022 4141 1434
Q 4141 663 3683 286
Q 3225 -91 2284 -91
Q 1841 -91 1394 -6
Q 947 78 500 244
L 500 1259
Q 947 1022 1364 901
Q 1781 781 2169 781
Q 2563 781 2772 912
Q 2981 1044 2981 1288
Q 2981 1506 2839 1625
Q 2697 1744 2272 1838
L 1806 1941
Q 1106 2091 782 2419
Q 459 2747 459 3303
Q 459 4000 909 4375
Q 1359 4750 2203 4750
Q 2588 4750 2994 4692
Q 3400 4634 3834 4519
z
" transform="scale(0.015625)"/>
      <path id="DejaVuSans-Bold-4c" d="M 538 3500
L 1656 3500
L 1656 0
L 538 0
L 538 3500
z
M 538 4863
L 1656 4863
L 1656 3950
L 538 3950
L 538 4863
z
" transform="scale(0.015625)"/>
      <path id="DejaVuSans-Bold-5b" d="M 1422 1791
L 159 3500
L 1344 3500
L 2059 2463
L 2784 3500
L 3969 3500
L 2706 1797
L 4031 0
L 2847 0
L 2059 1106
L 1281 0
L 97 0
L 1422 1791
z
" transform="scale(0.015625)"/>
      <path id="DejaVuSans-Bold-10" d="M 347 2297
L 2309 2297
L 2309 1388
L 347 1388
L 347 2297
z
" transform="scale(0.015625)"/>
      <path id="DejaVuSans-Bold-44" d="M 2106 1575
Q 1756 1575 1579 1456
Q 1403 1338 1403 1106
Q 1403 894 1545 773
Q 1688 653 1941 653
Q 2256 653 2472 879
Q 2688 1106 2688 1447
L 2688 1575
L 2106 1575
z
M 3816 1997
L 3816 0
L 2688 0
L 2688 519
Q 2463 200 2181 54
Q 1900 -91 1497 -91
Q 953 -91 614 226
Q 275 544 275 1050
Q 275 1666 698 1953
Q 1122 2241 2028 2241
L 2688 2241
L 2688 2328
Q 2688 2594 2478 2717
Q 2269 2841 1825 2841
Q 1466 2841 1156 2769
Q 847 2697 581 2553
L 581 3406
Q 941 3494 1303 3539
Q 1666 3584 2028 3584
Q 2975 3584 3395 3211
Q 3816 2838 3816 1997
z
" transform="scale(0.015625)"/>
      <path id="DejaVuSans-Bold-51" d="M 4056 2131
L 4056 0
L 2931 0
L 2931 347
L 2931 1631
Q 2931 2084 2911 2256
Q 2891 2428 2841 2509
Q 2775 2619 2662 2680
Q 2550 2741 2406 2741
Q 2056 2741 1856 2470
Q 1656 2200 1656 1722
L 1656 0
L 538 0
L 538 3500
L 1656 3500
L 1656 2988
Q 1909 3294 2193 3439
Q 2478 3584 2822 3584
Q 3428 3584 3742 3212
Q 4056 2841 4056 2131
z
" transform="scale(0.015625)"/>
      <path id="DejaVuSans-Bold-50" d="M 3781 2919
Q 3994 3244 4286 3414
Q 4578 3584 4928 3584
Q 5531 3584 5847 3212
Q 6163 2841 6163 2131
L 6163 0
L 5038 0
L 5038 1825
Q 5041 1866 5042 1909
Q 5044 1953 5044 2034
Q 5044 2406 4934 2573
Q 4825 2741 4581 2741
Q 4263 2741 4089 2478
Q 3916 2216 3909 1719
L 3909 0
L 2784 0
L 2784 1825
Q 2784 2406 2684 2573
Q 2584 2741 2328 2741
Q 2006 2741 1831 2477
Q 1656 2213 1656 1722
L 1656 0
L 531 0
L 531 3500
L 1656 3500
L 1656 2988
Q 1863 3284 2130 3434
Q 2397 3584 2719 3584
Q 3081 3584 3359 3409
Q 3638 3234 3781 2919
z
" transform="scale(0.015625)"/>
      <path id="DejaVuSans-Bold-4f" d="M 538 4863
L 1656 4863
L 1656 0
L 538 0
L 538 4863
z
" transform="scale(0.015625)"/>
      <path id="DejaVuSans-Bold-3" transform="scale(0.015625)"/>
      <path id="DejaVuSans-Bold-53" d="M 1656 506
L 1656 -1331
L 538 -1331
L 538 3500
L 1656 3500
L 1656 2988
Q 1888 3294 2169 3439
Q 2450 3584 2816 3584
Q 3463 3584 3878 3070
Q 4294 2556 4294 1747
Q 4294 938 3878 423
Q 3463 -91 2816 -91
Q 2450 -91 2169 54
Q 1888 200 1656 506
z
M 2400 2772
Q 2041 2772 1848 2508
Q 1656 2244 1656 1747
Q 1656 1250 1848 986
Q 2041 722 2400 722
Q 2759 722 2948 984
Q 3138 1247 3138 1747
Q 3138 2247 2948 2509
Q 2759 2772 2400 2772
z
" transform="scale(0.015625)"/>
      <path id="DejaVuSans-Bold-58" d="M 500 1363
L 500 3500
L 1625 3500
L 1625 3150
Q 1625 2866 1622 2436
Q 1619 2006 1619 1863
Q 1619 1441 1641 1255
Q 1663 1069 1716 984
Q 1784 875 1895 815
Q 2006 756 2150 756
Q 2500 756 2700 1025
Q 2900 1294 2900 1772
L 2900 3500
L 4019 3500
L 4019 0
L 2900 0
L 2900 506
Q 2647 200 2364 54
Q 2081 -91 1741 -91
Q 1134 -91 817 281
Q 500 653 500 1363
z
" transform="scale(0.015625)"/>
      <path id="DejaVuSans-Bold-45" d="M 2400 722
Q 2759 722 2948 984
Q 3138 1247 3138 1747
Q 3138 2247 2948 2509
Q 2759 2772 2400 2772
Q 2041 2772 1848 2508
Q 1656 2244 1656 1747
Q 1656 1250 1848 986
Q 2041 722 2400 722
z
M 1656 2988
Q 1888 3294 2169 3439
Q 2450 3584 2816 3584
Q 3463 3584 3878 3070
Q 4294 2556 4294 1747
Q 4294 938 3878 423
Q 3463 -91 2816 -91
Q 2450 -91 2169 54
Q 1888 200 1656 506
L 1656 0
L 538 0
L 538 4863
L 1656 4863
L 1656 2988
z
" transform="scale(0.015625)"/>
      <path id="DejaVuSans-Bold-46" d="M 3366 3391
L 3366 2478
Q 3138 2634 2908 2709
Q 2678 2784 2431 2784
Q 1963 2784 1702 2511
Q 1441 2238 1441 1747
Q 1441 1256 1702 982
Q 1963 709 2431 709
Q 2694 709 2930 787
Q 3166 866 3366 1019
L 3366 103
Q 3103 6 2833 -42
Q 2563 -91 2291 -91
Q 1344 -91 809 395
Q 275 881 275 1747
Q 275 2613 809 3098
Q 1344 3584 2291 3584
Q 2566 3584 2833 3536
Q 3100 3488 3366 3391
z
" transform="scale(0.015625)"/>
      <path id="DejaVuSans-Bold-31" d="M 588 4666
L 1931 4666
L 3628 1466
L 3628 4666
L 4769 4666
L 4769 0
L 3425 0
L 1728 3200
L 1728 0
L 588 0
L 588 4666
z
" transform="scale(0.015625)"/>
      <path id="DejaVuSans-Bold-3a" d="M 191 4666
L 1344 4666
L 2150 1275
L 2950 4666
L 4109 4666
L 4909 1275
L 5716 4666
L 6859 4666
L 5759 0
L 4372 0
L 3525 3547
L 2688 0
L 1300 0
L 191 4666
z
" transform="scale(0.015625)"/>
      <path id="DejaVuSans-Bold-25" d="M 2456 2859
Q 2741 2859 2887 2984
Q 3034 3109 3034 3353
Q 3034 3594 2887 3720
Q 2741 3847 2456 3847
L 1791 3847
L 1791 2859
L 2456 2859
z
M 2497 819
Q 2859 819 3042 972
Q 3225 1125 3225 1434
Q 3225 1738 3044 1889
Q 2863 2041 2497 2041
L 1791 2041
L 1791 819
L 2497 819
z
M 3616 2497
Q 4003 2384 4215 2081
Q 4428 1778 4428 1338
Q 4428 663 3972 331
Q 3516 0 2584 0
L 588 0
L 588 4666
L 2394 4666
Q 3366 4666 3802 4372
Q 4238 4078 4238 3431
Q 4238 3091 4078 2852
Q 3919 2613 3616 2497
z
" transform="scale(0.015625)"/>
      <path id="DejaVuSans-Bold-55" d="M 3138 2547
Q 2991 2616 2845 2648
Q 2700 2681 2553 2681
Q 2122 2681 1889 2404
Q 1656 2128 1656 1613
L 1656 0
L 538 0
L 538 3500
L 1656 3500
L 1656 2925
Q 1872 3269 2151 3426
Q 2431 3584 2822 3584
Q 2878 3584 2943 3579
Q 3009 3575 3134 3559
L 3138 2547
z
" transform="scale(0.015625)"/>
      <path id="DejaVuSans-Bold-52" d="M 2203 2784
Q 1831 2784 1636 2517
Q 1441 2250 1441 1747
Q 1441 1244 1636 976
Q 1831 709 2203 709
Q 2569 709 2762 976
Q 2956 1244 2956 1747
Q 2956 2250 2762 2517
Q 2569 2784 2203 2784
z
M 2203 3584
Q 3106 3584 3614 3096
Q 4122 2609 4122 1747
Q 4122 884 3614 396
Q 3106 -91 2203 -91
Q 1297 -91 786 396
Q 275 884 275 1747
Q 275 2609 786 3096
Q 1297 3584 2203 3584
z
" transform="scale(0.015625)"/>
      <path id="DejaVuSans-Bold-56" d="M 3272 3391
L 3272 2541
Q 2913 2691 2578 2766
Q 2244 2841 1947 2841
Q 1628 2841 1473 2761
Q 1319 2681 1319 2516
Q 1319 2381 1436 2309
Q 1553 2238 1856 2203
L 2053 2175
Q 2913 2066 3209 1816
Q 3506 1566 3506 1031
Q 3506 472 3093 190
Q 2681 -91 1863 -91
Q 1516 -91 1145 -36
Q 775 19 384 128
L 384 978
Q 719 816 1070 734
Q 1422 653 1784 653
Q 2113 653 2278 743
Q 2444 834 2444 1013
Q 2444 1163 2330 1236
Q 2216 1309 1875 1350
L 1678 1375
Q 931 1469 631 1722
Q 331 1975 331 2491
Q 331 3047 712 3315
Q 1094 3584 1881 3584
Q 2191 3584 2531 3537
Q 2872 3491 3272 3391
z
" transform="scale(0.015625)"/>
      <path id="DejaVuSans-Bold-57" d="M 1759 4494
L 1759 3500
L 2913 3500
L 2913 2700
L 1759 2700
L 1759 1216
Q 1759 972 1856 886
Q 1953 800 2241 800
L 2816 800
L 2816 0
L 1856 0
Q 1194 0 917 276
Q 641 553 641 1216
L 641 2700
L 84 2700
L 84 3500
L 641 3500
L 641 4494
L 1759 4494
z
" transform="scale(0.015625)"/>
      <path id="DejaVuSans-Bold-48" d="M 4031 1759
L 4031 1441
L 1416 1441
Q 1456 1047 1700 850
Q 1944 653 2381 653
Q 2734 653 3104 758
Q 3475 863 3866 1075
L 3866 213
Q 3469 63 3072 -14
Q 2675 -91 2278 -91
Q 1328 -91 801 392
Q 275 875 275 1747
Q 275 2603 792 3093
Q 1309 3584 2216 3584
Q 3041 3584 3536 3087
Q 4031 2591 4031 1759
z
M 2881 2131
Q 2881 2450 2695 2645
Q 2509 2841 2209 2841
Q 1884 2841 1681 2658
Q 1478 2475 1428 2131
L 2881 2131
z
" transform="scale(0.015625)"/>
      <path id="DejaVuSans-Bold-5c" d="M 78 3500
L 1197 3500
L 2138 1125
L 2938 3500
L 4056 3500
L 2584 -331
Q 2363 -916 2067 -1148
Q 1772 -1381 1288 -1381
L 641 -1381
L 641 -647
L 991 -647
Q 1275 -647 1404 -556
Q 1534 -466 1606 -231
L 1638 -134
L 78 3500
z
" transform="scale(0.015625)"/>
     </defs>
     <use xlink:href="#DejaVuSans-Bold-36"/>
     <use xlink:href="#DejaVuSans-Bold-4c" transform="translate(72.015625 0)"/>
     <use xlink:href="#DejaVuSans-Bold-5b" transform="translate(106.296875 0)"/>
     <use xlink:href="#DejaVuSans-Bold-10" transform="translate(170.796875 0)"/>
     <use xlink:href="#DejaVuSans-Bold-44" transform="translate(212.296875 0)"/>
     <use xlink:href="#DejaVuSans-Bold-51" transform="translate(279.78125 0)"/>
     <use xlink:href="#DejaVuSans-Bold-4c" transform="translate(350.96875 0)"/>
     <use xlink:href="#DejaVuSans-Bold-50" transform="translate(385.25 0)"/>
     <use xlink:href="#DejaVuSans-Bold-44" transform="translate(489.453125 0)"/>
     <use xlink:href="#DejaVuSans-Bold-4f" transform="translate(556.9375 0)"/>
     <use xlink:href="#DejaVuSans-Bold-3" transform="translate(591.21875 0)"/>
     <use xlink:href="#DejaVuSans-Bold-53" transform="translate(626.03125 0)"/>
     <use xlink:href="#DejaVuSans-Bold-58" transform="translate(697.609375 0)"/>
     <use xlink:href="#DejaVuSans-Bold-45" transform="translate(768.796875 0)"/>
     <use xlink:href="#DejaVuSans-Bold-4f" transform="translate(840.375 0)"/>
     <use xlink:href="#DejaVuSans-Bold-4c" transform="translate(874.65625 0)"/>
     <use xlink:href="#DejaVuSans-Bold-46" transform="translate(908.9375 0)"/>
     <use xlink:href="#DejaVuSans-Bold-3" transform="translate(968.21875 0)"/>
     <use xlink:href="#DejaVuSans-Bold-31" transform="translate(1003.03125 0)"/>
     <use xlink:href="#DejaVuSans-Bold-3a" transform="translate(1086.71875 0)"/>
     <use xlink:href="#DejaVuSans-Bold-25" transform="translate(1197.015625 0)"/>
     <use xlink:href="#DejaVuSans-Bold-3" transform="translate(1273.234375 0)"/>
     <use xlink:href="#DejaVuSans-Bold-55" transform="translate(1308.046875 0)"/>
     <use xlink:href="#DejaVuSans-Bold-52" transform="translate(1357.359375 0)"/>
     <use xlink:href="#DejaVuSans-Bold-45" transform="translate(1426.0625 0)"/>
     <use xlink:href="#DejaVuSans-Bold-58" transform="translate(1497.640625 0)"/>
     <use xlink:href="#DejaVuSans-Bold-56" transform="translate(1568.828125 0)"/>
     <use xlink:href="#DejaVuSans-Bold-57" transform="translate(1628.34375 0)"/>
     <use xlink:href="#DejaVuSans-Bold-51" transform="translate(1676.140625 0)"/>
     <use xlink:href="#DejaVuSans-Bold-48" transform="translate(1747.328125 0)"/>
     <use xlink:href="#DejaVuSans-Bold-56" transform="translate(1815.15625 0)"/>
     <use xlink:href="#DejaVuSans-Bold-56" transform="translate(1874.671875 0)"/>
     <use xlink:href="#DejaVuSans-Bold-3" transform="translate(1934.1875 0)"/>
     <use xlink:href="#DejaVuSans-Bold-44" transform="translate(1969 0)"/>
     <use xlink:href="#DejaVuSans-Bold-51" transform="translate(2036.484375 0)"/>
     <use xlink:href="#DejaVuSans-Bold-44" transform="translate(2107.671875 0)"/>
     <use xlink:href="#DejaVuSans-Bold-4f" transform="translate(2175.15625 0)"/>
     <use xlink:href="#DejaVuSans-Bold-5c" transform="translate(2209.4375 0)"/>
     <use xlink:href="#DejaVuSans-Bold-56" transform="translate(2274.625 0)"/>
     <use xlink:href="#DejaVuSans-Bold-4c" transform="translate(2334.140625 0)"/>
     <use xlink:href="#DejaVuSans-Bold-56" transform="translate(2368.421875 0)"/>
    </g>
   </g>
  </g>
 </g>
 <defs>
  <clipPath id="pdc5f30e6a3">
   <rect x="129.923125" y="24" width="493.956875" height="282.877891"/>
  </clipPath>
 </defs>
</svg>
